<svg xmlns="http://www.w3.org/2000/svg" width="180" height="180" viewBox="0 0 180 180">
  <g id="favicon" transform="translate(0 0)">
    <path id="circle"
      d="M-146,425a89.438,89.438,0,0,1-35.032-7.073,90.006,90.006,0,0,1-15.288-8.3,90.643,90.643,0,0,1-13.32-10.99,90.643,90.643,0,0,1-10.99-13.32,90.006,90.006,0,0,1-8.3-15.288A89.438,89.438,0,0,1-236,335a89.437,89.437,0,0,1,7.073-35.032,90.007,90.007,0,0,1,8.3-15.288,90.648,90.648,0,0,1,10.99-13.32,90.644,90.644,0,0,1,13.32-10.99,90.01,90.01,0,0,1,15.288-8.3A89.437,89.437,0,0,1-146,245a89.436,89.436,0,0,1,35.032,7.073,90.011,90.011,0,0,1,15.288,8.3,90.647,90.647,0,0,1,13.32,10.99,90.65,90.65,0,0,1,10.99,13.32,90.01,90.01,0,0,1,8.3,15.288A89.435,89.435,0,0,1-56,335a89.436,89.436,0,0,1-7.073,35.032,90.008,90.008,0,0,1-8.3,15.288,90.647,90.647,0,0,1-10.99,13.32,90.647,90.647,0,0,1-13.32,10.99,90.01,90.01,0,0,1-15.288,8.3A89.437,89.437,0,0,1-146,425Zm-.067-102.1a1.165,1.165,0,0,0-1.165,1.164v25.869c0,.331.6.482,1.164.482s1.164-.151,1.164-.482V324.066A1.165,1.165,0,0,0-146.066,322.9Zm-5.312-27.99a1.175,1.175,0,0,0-.477.1,9.134,9.134,0,0,0-5.348,8.31c0,6.416,5.489,10.177,10.8,13.814,4.721,3.233,9.18,6.287,9.18,10.819,0,3.663-1.332,5.29-4.316,7.55a1.168,1.168,0,0,0-.223,1.633,1.176,1.176,0,0,0,.928.463,1.192,1.192,0,0,0,.7-.237c3.4-2.58,5.239-4.843,5.239-9.406,0-5.751-5.177-9.3-10.184-12.729l-.011-.007c-5.032-3.451-9.785-6.71-9.785-11.9a6.8,6.8,0,0,1,3.981-6.189,1.158,1.158,0,0,0,.61-.652,1.155,1.155,0,0,0-.029-.89A1.169,1.169,0,0,0-151.379,294.912Zm.079,24.2a1.173,1.173,0,0,0-.668.209c-3.6,2.525-5.274,5.537-5.274,9.481a9.583,9.583,0,0,0,5.487,8.7,1.194,1.194,0,0,0,.455.095,1.153,1.153,0,0,0,1.067-.706,1.168,1.168,0,0,0-.615-1.529,7.193,7.193,0,0,1-4.071-6.564c0-3.2,1.281-5.47,4.285-7.574a1.153,1.153,0,0,0,.478-.751,1.161,1.161,0,0,0-.193-.871A1.166,1.166,0,0,0-151.3,319.114Zm6.394-24.673h0c4.046,2.815,7.678,5.681,7.678,9.78,0,3.663-1.332,5.289-4.316,7.547a1.169,1.169,0,0,0-.223,1.633,1.176,1.176,0,0,0,.928.463,1.181,1.181,0,0,0,.7-.236c3.4-2.573,5.238-4.834,5.238-9.407,0-5.759-5.317-9.4-10.008-12.611V266.939a7.682,7.682,0,0,0,6.467-7.544,7.64,7.64,0,0,0-7.631-7.631A7.64,7.64,0,0,0-153.7,259.4a7.683,7.683,0,0,0,6.467,7.544v23.068a28.2,28.2,0,0,1-5.382-4.643,8.84,8.84,0,0,1-2.263-5.768,6.8,6.8,0,0,1,3.981-6.189,1.168,1.168,0,0,0,.582-1.543,1.172,1.172,0,0,0-1.067-.683,1.171,1.171,0,0,0-.476.1,9.129,9.129,0,0,0-5.349,8.311c0,5.905,4.517,9.493,9.973,13.248V307.9a1.165,1.165,0,0,0,1.164,1.165,1.165,1.165,0,0,0,1.164-1.165V294.44Zm23.782-23.275c-6.212,0-9.633,3.372-9.633,9.494,0,3.936-2.739,8.429-6.1,10.017a1.166,1.166,0,0,0-.556,1.549,1.157,1.157,0,0,0,1.051.67,1.14,1.14,0,0,0,.5-.113,13.152,13.152,0,0,0,6.021-6.35H-113.8a1.165,1.165,0,0,0,1.164-1.165A1.165,1.165,0,0,0-113.8,284.1h-15.159a12.564,12.564,0,0,0,.53-3.443c0-.278.005-.5.016-.7h21.147A1.165,1.165,0,0,0-106.1,278.8a1.165,1.165,0,0,0-1.164-1.164h-20.772a5.2,5.2,0,0,1,2.347-3.123,8.791,8.791,0,0,1,4.566-1.016H-100.8a1.165,1.165,0,0,0,1.164-1.164,1.165,1.165,0,0,0-1.164-1.165Zm-57.278,12.94a1.166,1.166,0,0,0-1.165,1.165,1.165,1.165,0,0,0,1.165,1.164h16.122a13.133,13.133,0,0,0,6.017,6.351,1.17,1.17,0,0,0,.495.11,1.163,1.163,0,0,0,1.051-.67,1.165,1.165,0,0,0-.556-1.549c-3.363-1.584-6.1-6.077-6.1-10.017a14.466,14.466,0,0,0-.123-1.914,1.263,1.263,0,0,0-.032-.23c-.741-4.809-4.018-7.35-9.477-7.35h-20.332a1.166,1.166,0,0,0-1.165,1.165,1.165,1.165,0,0,0,1.165,1.164H-171a8.791,8.791,0,0,1,4.566,1.016,5.2,5.2,0,0,1,2.347,3.123h-20.778a1.165,1.165,0,0,0-1.164,1.164,1.17,1.17,0,0,0,1.164,1.167h21.154c.011.258.016.486.016.7a12.378,12.378,0,0,0,.527,3.443Zm37.567-12.927a1.164,1.164,0,0,0-1.073.708,1.147,1.147,0,0,0-.013.888,1.153,1.153,0,0,0,.624.638,7.2,7.2,0,0,1,4.071,6.565c0,3.205-1.28,5.47-4.281,7.573a1.167,1.167,0,0,0-.284,1.62,1.166,1.166,0,0,0,.954.494,1.188,1.188,0,0,0,.67-.206c3.6-2.527,5.274-5.54,5.274-9.481a9.577,9.577,0,0,0-5.485-8.7A1.147,1.147,0,0,0-140.835,271.179Zm-5.135-6.48h0a.866.866,0,0,0-.1,0,.882.882,0,0,0-.1,0,5.272,5.272,0,0,1-3.683-1.586,5.272,5.272,0,0,1-1.524-3.718,5.309,5.309,0,0,1,5.3-5.3,5.309,5.309,0,0,1,5.3,5.3,5.272,5.272,0,0,1-1.524,3.718A5.272,5.272,0,0,1-145.97,264.7Z"
      transform="translate(236 -245)" fill="#4c243d" />
    <text id="ParaMate" transform="translate(40 126)" fill="#fff" font-size="20" font-family="Poppins-Bold, Poppins"
      font-weight="700">
      <tspan x="0" y="0">ParaMate</tspan>
    </text>
    <text id="your_Paramedic_Buddy" data-name="your
Paramedic Buddy" transform="translate(90 139)" fill="#fff" font-size="12" font-family="Poppins-Regular, Poppins">
      <tspan x="-13.296" y="0">your</tspan>
      <tspan x="-53.508" y="15">Paramedic Buddy</tspan>
    </text>
  </g>
</svg>